<?xml version="1.0" standalone="no"?>
<!DOCTYPE svg PUBLIC "-//W3C//DTD SVG 20010904//EN"
 "http://www.w3.org/TR/2001/REC-SVG-20010904/DTD/svg10.dtd">
<svg version="1.0" xmlns="http://www.w3.org/2000/svg"
 width="260.000000pt" height="260.000000pt" viewBox="0 0 260.000000 260.000000"
 preserveAspectRatio="xMidYMid meet">
<metadata>
Created by potrace 1.14, written by Peter Selinger 2001-2017
</metadata>
<g transform="translate(0.000000,260.000000) scale(0.100000,-0.100000)"
fill="#000000" stroke="none">
<path d="M1039 2595 c-3 -2 -16 -7 -30 -9 -13 -2 -24 -5 -24 -6 0 -1 -11 -3
-25 -6 -14 -2 -32 -7 -40 -11 -8 -3 -24 -8 -34 -10 -11 -2 -25 -8 -31 -13 -7
-5 -15 -7 -18 -3 -4 3 -7 1 -7 -6 0 -7 -6 -11 -14 -8 -8 3 -20 -1 -26 -8 -7
-8 -15 -14 -18 -13 -11 3 -136 -63 -144 -76 -4 -6 -8 -7 -8 -2 0 5 -8 2 -18
-7 -9 -9 -36 -29 -59 -44 -23 -15 -57 -42 -76 -60 -19 -17 -38 -29 -41 -26 -3
4 -6 2 -6 -3 0 -5 -34 -45 -75 -88 -41 -43 -77 -86 -80 -97 -4 -11 -11 -16
-17 -13 -6 4 -8 3 -5 -3 4 -5 -2 -19 -11 -29 -10 -10 -21 -27 -25 -36 -3 -10
-11 -18 -17 -18 -6 0 -9 -4 -5 -9 3 -5 -1 -16 -9 -23 -7 -8 -17 -25 -21 -38
-4 -13 -14 -30 -21 -38 -8 -7 -12 -18 -9 -23 4 -5 1 -9 -5 -9 -6 0 -8 -4 -5
-10 3 -5 1 -10 -6 -10 -7 0 -9 -3 -6 -7 4 -3 2 -11 -3 -18 -5 -6 -11 -20 -13
-31 -2 -10 -9 -32 -15 -47 -7 -16 -12 -35 -12 -43 0 -8 -4 -14 -9 -14 -4 0 -7
-11 -6 -25 2 -14 -1 -25 -5 -25 -5 0 -9 -8 -9 -17 0 -10 -2 -31 -6 -48 -3 -16
-7 -40 -8 -52 -2 -12 -6 -25 -10 -29 -12 -12 -8 -26 6 -18 9 6 9 5 1 -7 -16
-20 -16 -292 0 -282 6 4 6 0 -2 -9 -7 -9 -9 -19 -4 -22 5 -3 8 -17 7 -31 -2
-14 1 -27 6 -31 5 -3 7 -9 4 -14 -2 -4 2 -30 10 -56 8 -27 15 -51 15 -54 2
-15 23 -85 30 -99 5 -9 12 -25 16 -36 4 -11 8 -22 9 -25 2 -3 6 -15 10 -28 4
-12 12 -22 17 -22 6 0 8 -7 4 -15 -3 -8 -2 -15 2 -15 5 0 14 -16 22 -35 8 -19
18 -35 22 -35 5 0 6 -4 3 -10 -3 -5 -2 -10 4 -10 6 0 17 -15 26 -34 9 -19 25
-42 36 -52 10 -9 19 -23 19 -31 0 -8 5 -11 10 -8 6 3 10 0 10 -7 0 -8 9 -20
20 -28 11 -8 20 -18 20 -23 0 -12 53 -62 62 -59 8 2 12 -13 9 -31 -1 -5 2 -6
6 -4 5 3 28 -13 53 -34 25 -22 63 -52 85 -67 22 -15 42 -29 45 -32 10 -10 45
-31 63 -36 9 -4 17 -10 17 -15 0 -5 3 -8 8 -7 4 1 27 -9 52 -22 25 -13 50 -25
55 -27 43 -12 85 -29 85 -35 0 -5 12 -8 26 -8 14 0 33 -4 43 -9 10 -6 28 -11
42 -13 13 -2 29 -7 35 -10 6 -4 29 -8 52 -9 23 -2 42 -6 42 -9 0 -3 24 -7 53
-8 28 -1 61 -3 72 -5 11 -3 26 1 34 7 11 8 13 8 7 -1 -9 -17 6 -17 23 0 8 6
11 7 8 1 -4 -7 9 -11 38 -10 25 1 45 6 45 11 0 6 5 3 10 -5 5 -8 10 -11 10 -5
0 6 19 11 43 12 57 3 178 23 190 33 3 2 40 11 55 12 6 1 12 4 12 8 0 3 9 6 19
7 10 1 41 12 68 24 54 26 50 24 81 34 12 4 22 12 22 18 0 6 3 8 6 4 3 -3 24 5
45 19 21 13 41 24 44 24 3 0 11 5 18 10 7 6 44 34 82 62 63 46 244 218 230
218 -3 0 4 10 15 23 12 12 31 38 43 57 11 19 26 38 31 42 6 4 7 8 2 8 -6 0 -1
7 10 15 10 8 15 15 9 15 -5 0 -4 4 3 9 7 4 14 14 15 22 2 8 10 25 20 39 9 13
17 32 17 41 0 10 4 19 8 21 12 4 62 145 55 152 -4 3 0 6 7 6 7 0 11 3 7 6 -3
3 1 23 8 45 8 21 12 39 9 39 -2 0 0 10 7 21 9 17 8 20 -2 14 -8 -6 -10 -4 -4
6 13 20 13 49 1 49 -6 0 -4 5 4 10 9 6 10 10 3 10 -6 0 -10 9 -8 20 2 11 0 20
-6 20 -5 0 -9 5 -9 11 0 6 -11 24 -25 41 -14 16 -25 26 -25 22 0 -4 -9 3 -20
16 -11 13 -20 20 -20 16 0 -3 -14 1 -32 10 -47 24 -136 21 -195 -7 -50 -24
-133 -98 -133 -118 0 -7 -5 -9 -12 -5 -6 4 -8 3 -4 -4 3 -6 0 -17 -8 -25 -8
-8 -16 -23 -18 -33 -2 -10 -5 -21 -8 -24 -7 -7 -32 -73 -33 -87 0 -7 -5 -13
-10 -13 -6 0 -7 -3 -4 -7 4 -3 -5 -22 -20 -41 -15 -20 -21 -32 -14 -28 19 12
-78 -110 -127 -160 -24 -24 -47 -44 -52 -44 -5 0 -15 -9 -23 -20 -8 -11 -17
-17 -20 -14 -4 4 -9 -1 -13 -10 -3 -9 -10 -14 -14 -11 -5 3 -15 -1 -22 -9 -26
-26 -160 -84 -180 -78 -5 1 -8 -3 -8 -9 0 -5 -5 -7 -10 -4 -5 3 -16 3 -22 -2
-16 -9 -30 -12 -85 -15 -24 -2 -43 -7 -43 -11 0 -4 -8 -3 -19 2 -10 6 -21 7
-25 4 -12 -12 -36 -12 -36 0 0 7 -5 5 -10 -3 -8 -12 -10 -12 -10 -1 0 10 -3
11 -14 2 -8 -7 -17 -8 -19 -4 -3 5 -21 10 -39 12 -41 3 -81 9 -88 11 -3 1 -8
2 -12 1 -5 0 -8 3 -8 7 0 4 -12 9 -26 10 -15 1 -33 7 -40 13 -7 6 -19 7 -25 3
-8 -4 -9 -3 -5 4 4 7 1 12 -9 12 -8 0 -33 11 -55 25 -22 14 -40 22 -40 18 0
-5 -6 -1 -13 7 -7 8 -24 23 -39 32 -42 28 -148 131 -148 145 0 7 -4 13 -8 13
-10 0 -64 82 -83 128 -8 17 -18 32 -22 32 -5 0 -6 4 -2 9 3 5 1 12 -5 16 -6 4
-8 10 -5 15 3 5 1 11 -5 15 -6 4 -8 11 -5 16 4 5 2 9 -4 9 -5 0 -8 9 -6 20 2
11 0 20 -6 20 -5 0 -9 18 -9 41 0 27 -4 38 -11 33 -8 -5 -8 -1 0 13 6 11 7 24
3 28 -9 9 -9 215 0 215 4 0 6 8 6 18 -1 9 5 37 12 62 7 25 15 51 16 59 1 8 7
17 12 20 5 3 8 14 6 23 -1 10 5 22 14 28 10 5 13 10 8 10 -5 0 -3 7 4 15 7 8
9 15 6 15 -4 0 2 10 13 22 11 11 18 24 16 29 -3 4 5 16 18 26 23 18 27 24 27
44 0 5 5 7 10 4 6 -3 10 -2 10 3 0 18 131 142 150 142 5 0 10 5 10 10 0 6 6
10 14 10 8 0 16 4 18 8 4 9 152 82 168 82 25 0 112 53 156 95 27 25 45 45 41
45 -4 0 2 10 13 22 11 12 18 28 16 35 -3 7 -1 13 5 13 6 0 7 5 4 10 -3 6 -2
10 2 10 10 0 9 102 -2 147 -4 17 -16 41 -26 52 -11 11 -19 26 -19 32 0 7 -3 9
-7 6 -3 -4 -12 2 -20 13 -8 11 -19 20 -25 20 -6 0 -20 8 -31 18 -15 12 -18 13
-12 2 6 -12 5 -13 -6 -2 -12 11 -100 17 -110 7z"/>
<path d="M2130 2464 c0 -7 -17 -12 -37 -13 -34 -1 -68 -6 -83 -11 -3 -1 -8 -2
-12 -1 -5 0 -8 -3 -8 -9 0 -5 -4 -9 -9 -7 -12 3 -121 -75 -121 -87 0 -4 -11
-22 -25 -38 -14 -16 -23 -34 -19 -39 3 -5 1 -9 -3 -9 -24 0 -37 -200 -14 -223
11 -11 2 -57 -11 -57 -6 0 -8 -7 -4 -15 3 -9 0 -15 -10 -15 -8 0 -13 -4 -10
-9 7 -10 -102 -127 -115 -123 -5 1 -9 -2 -9 -8 0 -11 -150 -114 -150 -103 0 4
-4 3 -8 -2 -6 -10 -86 -48 -104 -51 -4 -1 -9 -2 -10 -4 -11 -8 -38 -6 -38 3 0
8 -3 7 -9 -1 -11 -17 -21 -17 -32 0 -5 7 -9 8 -9 3 0 -6 -14 -12 -32 -13 -18
-2 -35 -7 -39 -13 -3 -5 -10 -9 -15 -7 -13 4 -84 -40 -118 -74 -15 -15 -26
-28 -22 -28 3 0 -4 -12 -17 -26 -12 -14 -23 -30 -23 -35 -1 -5 -3 -11 -4 -14
-1 -3 -3 -8 -4 -12 -1 -5 -5 -14 -9 -20 -11 -17 -17 -153 -8 -153 5 0 7 -12 5
-27 -1 -15 3 -31 9 -35 7 -4 12 -11 12 -15 2 -20 17 -53 26 -53 5 0 9 -5 9
-11 0 -13 38 -49 52 -49 4 0 8 -6 8 -12 0 -15 78 -53 135 -66 57 -13 93 -14
117 -1 15 8 18 8 14 0 -4 -6 13 -2 38 8 24 11 47 17 50 14 3 -4 6 -1 6 5 0 7
4 12 10 12 10 0 33 17 81 63 16 15 26 27 22 27 -3 0 1 8 9 18 21 23 49 92 42
103 -3 5 -1 9 4 9 12 0 10 110 -2 129 -7 11 -6 12 5 6 11 -7 12 -6 2 6 -19 23
-22 81 -7 97 8 7 12 18 9 23 -4 5 -1 9 4 9 6 0 11 7 11 15 0 8 4 15 10 15 5 0
12 11 16 25 4 14 9 24 12 21 2 -3 18 13 33 34 16 22 34 40 40 40 5 0 7 5 4 10
-3 6 -2 10 4 10 5 0 27 15 47 34 21 19 42 33 46 30 4 -3 8 -1 8 5 0 12 80 50
118 57 13 3 30 0 38 -7 8 -6 14 -8 14 -5 0 4 9 2 20 -4 15 -8 20 -8 20 2 0 9
3 9 10 -2 5 -8 10 -10 10 -5 0 6 19 10 43 9 46 0 69 5 63 15 -2 3 10 7 27 8
17 1 33 6 36 11 3 5 16 14 29 21 12 7 20 17 16 23 -4 7 -3 8 4 4 7 -4 12 -2
12 4 0 6 5 8 10 5 6 -3 10 -1 10 5 0 6 9 20 20 32 21 22 48 75 57 111 12 48
12 147 0 147 -7 0 -6 4 3 10 11 7 11 10 2 10 -7 0 -11 4 -8 8 3 5 -1 21 -9 35
-8 15 -14 30 -14 33 1 3 -8 16 -19 29 -11 13 -18 25 -16 28 2 2 -10 15 -27 28
-18 13 -38 30 -46 37 -7 7 -13 11 -13 7 0 -4 -12 3 -26 14 -14 11 -32 17 -40
14 -8 -3 -14 0 -14 5 0 6 -14 10 -31 10 -17 -1 -35 5 -40 13 -5 8 -9 9 -9 3z"/>
</g>
</svg>
